<?xml version="1.0" encoding="UTF-8"?>
<svg version="1.1" xmlns="http://www.w3.org/2000/svg" width="447" height="445">
<path d="M0 0 C147.51 0 295.02 0 447 0 C447 146.85 447 293.7 447 445 C299.49 445 151.98 445 0 445 C0 298.15 0 151.3 0 0 Z " fill="#F8F8F8" transform="translate(0,0)"/>
<path d="M0 0 C37.62 0 75.24 0 114 0 C114 31.35 114 62.7 114 95 C98.82 95 83.64 95 68 95 C68 100.61 68 106.22 68 112 C70.31 112 72.62 112 75 112 C75 112.99 75 113.98 75 115 C63.45 115 51.9 115 40 115 C39.67 114.01 39.34 113.02 39 112 C41.31 112 43.62 112 46 112 C46 106.39 46 100.78 46 95 C30.82 95 15.64 95 0 95 C0 63.65 0 32.3 0 0 Z " fill="#F6F7F7" transform="translate(261,167)"/>
<path d="M0 0 C37.62 0 75.24 0 114 0 C114 31.35 114 62.7 114 95 C98.82 95 83.64 95 68 95 C68 100.61 68 106.22 68 112 C70.31 112 72.62 112 75 112 C75 112.99 75 113.98 75 115 C63.45 115 51.9 115 40 115 C39.67 114.01 39.34 113.02 39 112 C41.31 112 43.62 112 46 112 C46 106.39 46 100.78 46 95 C30.82 95 15.64 95 0 95 C0 63.65 0 32.3 0 0 Z M3 3 C3 27.75 3 52.5 3 78 C38.97 78 74.94 78 112 78 C112 53.25 112 28.5 112 3 C76.03 3 40.06 3 3 3 Z " fill="#3B5C78" transform="translate(261,167)"/>
<path d="M0 0 C35.64 0 71.28 0 108 0 C108 3.63 108 7.26 108 11 C72.36 11 36.72 11 0 11 C0 7.37 0 3.74 0 0 Z " fill="#F9F9F9" transform="translate(264,248)"/>
<path d="M0 0 C14.52 0 29.04 0 44 0 C44 8.91 44 17.82 44 27 C29.48 27 14.96 27 0 27 C0 18.09 0 9.18 0 0 Z " fill="#F2F4F5" transform="translate(296,194)"/>
<path d="M0 0 C19.47 0 38.94 0 59 0 C59 0.99 59 1.98 59 3 C57.35 3 55.7 3 54 3 C54 11.25 54 19.5 54 28 C55.65 28 57.3 28 59 28 C59 29.32 59 30.64 59 32 C58.14245117 32.02505615 57.28490234 32.0501123 56.40136719 32.07592773 C53.2106563 32.17123412 50.02009781 32.27045751 46.82958984 32.37231445 C45.45040622 32.4155455 44.07117315 32.45722866 42.69189453 32.49731445 C40.70593062 32.55530403 38.72014731 32.61937723 36.734375 32.68359375 C34.94338379 32.73858032 34.94338379 32.73858032 33.11621094 32.79467773 C30.57536745 32.96208994 28.4228576 33.26317859 26 34 C26.495 34.495 26.495 34.495 27 35 C27.04080783 36.99958364 27.04254356 39.00045254 27 41 C25.02 41 23.04 41 21 41 C21 38.36 21 35.72 21 33 C19.35 33 17.7 33 16 33 C16.33 33.66 16.66 34.32 17 35 C17.039992 36.99960012 17.04346799 39.00047242 17 41 C26.05078219 41.98025083 35.09506294 42.30511732 44.1875 42.5625 C45.63086853 42.60581566 47.07422803 42.64943346 48.51757812 42.69335938 C52.01162173 42.79904858 55.50576898 42.90067582 59 43 C59 43.99 59 44.98 59 46 C39.2 46.33 19.4 46.66 -1 47 C-0.67 45.35 -0.34 43.7 0 42 C1.98 41.505 1.98 41.505 4 41 C3.67 40.67 3.34 40.34 3 40 C2.95919217 38.00041636 2.95745644 35.99954746 3 34 C4.98 33.505 4.98 33.505 7 33 C3.04 32.505 3.04 32.505 -1 32 C-1 31.01 -1 30.02 -1 29 C0.98 29 2.96 29 5 29 C5 20.09 5 11.18 5 2 C3.02 2 1.04 2 -1 2 C-0.67 1.34 -0.34 0.68 0 0 Z M7 2 C7 10.91 7 19.82 7 29 C21.52 29 36.04 29 51 29 C51 20.09 51 11.18 51 2 C36.48 2 21.96 2 7 2 Z " fill="#A8B5C3" transform="translate(289,192)"/>
<path d="M0 0 C2.64590014 -0.02684679 5.29153096 -0.04676357 7.9375 -0.0625 C8.69224609 -0.07087891 9.44699219 -0.07925781 10.22460938 -0.08789062 C12.14994313 -0.09652441 14.07535581 -0.05224333 16 0 C17.92257175 1.92257175 17.12908424 4.78085108 17.13894653 7.33874512 C17.1369223 8.22727173 17.13489807 9.11579834 17.1328125 10.03125 C17.13424759 11.39062683 17.13424759 11.39062683 17.13571167 12.77746582 C17.13639353 14.69751047 17.13453882 16.61755741 17.13037109 18.53759766 C17.12502292 21.48735704 17.13031588 24.43696414 17.13671875 27.38671875 C17.13605797 29.24739617 17.13477681 31.1080735 17.1328125 32.96875 C17.13483673 33.85727661 17.13686096 34.74580322 17.13894653 35.66125488 C17.11494988 41.88505012 17.11494988 41.88505012 16 43 C13.66839945 43.09909302 11.33370058 43.12970504 9 43.125 C7.72125 43.12757813 6.4425 43.13015625 5.125 43.1328125 C2 43 2 43 1 42 C0.83958807 38.89914779 0.74036598 35.81812421 0.68359375 32.71484375 C0.66281265 31.78402481 0.64203156 30.85320587 0.62062073 29.8941803 C0.55502069 26.90869818 0.49619198 23.92312516 0.4375 20.9375 C0.3943247 18.91861024 0.35071075 16.8997298 0.30664062 14.88085938 C0.19932871 9.92066703 0.09809112 4.96038291 0 0 Z " fill="#464645" transform="translate(72,203)"/>
<path d="M0 0 C37.62 0 75.24 0 114 0 C114 0.33 114 0.66 114 1 C76.71 1 39.42 1 1 1 C1 1.66 1 2.32 1 3 C1.66 3 2.32 3 3 3 C3 27.75 3 52.5 3 78 C10.92 78 18.84 78 27 78 C27 78.33 27 78.66 27 79 C55.05 79.33 83.1 79.66 112 80 C112 84.29 112 88.58 112 93 C75.37 93 38.74 93 1 93 C0.505 93.99 0.505 93.99 0 95 C0 63.65 0 32.3 0 0 Z M3 81 C3 84.63 3 88.26 3 92 C38.64 92 74.28 92 111 92 C111 88.37 111 84.74 111 81 C75.36 81 39.72 81 3 81 Z " fill="#95A7B6" transform="translate(261,167)"/>
<path d="M0 0 C4.95 0 9.9 0 15 0 C16 1 16 1 16.11352539 4.87719727 C16.11336621 6.60694167 16.10766849 8.33669081 16.09765625 10.06640625 C16.0962413 10.97502914 16.09482635 11.88365204 16.09336853 12.81980896 C16.08775193 15.73407221 16.07519665 18.64825981 16.0625 21.5625 C16.05748714 23.53320202 16.05292386 25.50390524 16.04882812 27.47460938 C16.03777711 32.31643559 16.02050138 37.15820495 16 42 C14.33388095 42.042721 12.66617115 42.04063832 11 42 C10 41 10 41 9.9375 37.4375 C9.958125 36.303125 9.97875 35.16875 10 34 C8.68 34 7.36 34 6 34 C6 36.64 6 39.28 6 42 C4.02 42 2.04 42 0 42 C0 28.14 0 14.28 0 0 Z " fill="#484848" transform="translate(159,204)"/>
<path d="M0 0 C37.29 0 74.58 0 113 0 C113 31.02 113 62.04 113 94 C112.34 93.34 111.68 92.68 111 92 C111 87.71 111 83.42 111 79 C81.96 79 52.92 79 23 79 C26.78255624 76.47829584 29.76485768 76.73279308 34.14331055 76.77294922 C34.97280212 76.77265717 35.8022937 76.77236511 36.65692139 76.77206421 C39.40029337 76.77345821 42.14339418 76.78902268 44.88671875 76.8046875 C46.78815055 76.80841738 48.68958427 76.81126447 50.59101868 76.81326294 C55.59698793 76.82090135 60.60284123 76.84055166 65.60876465 76.8626709 C71.61429702 76.88672065 77.61986814 76.89590932 83.62543488 76.90757751 C92.75037057 76.9269759 101.87505183 76.96529705 111 77 C111 52.25 111 27.5 111 2 C74.37 2 37.74 2 0 2 C0 1.34 0 0.68 0 0 Z " fill="#55718A" transform="translate(262,168)"/>
<path d="M0 0 C4.95 0 9.9 0 15 0 C16 1 16 1 16.11352539 4.87719727 C16.11336621 6.60694167 16.10766849 8.33669081 16.09765625 10.06640625 C16.0962413 10.97502914 16.09482635 11.88365204 16.09336853 12.81980896 C16.08775193 15.73407221 16.07519665 18.64825981 16.0625 21.5625 C16.05748714 23.53320202 16.05292386 25.50390524 16.04882812 27.47460938 C16.03777711 32.31643559 16.02050138 37.15820495 16 42 C14.35 42 12.7 42 11 42 C10.67 33.42 10.34 24.84 10 16 C8.35 15.67 6.7 15.34 5 15 C5 23.91 5 32.82 5 42 C3.35 42 1.7 42 0 42 C0 28.14 0 14.28 0 0 Z " fill="#393939" transform="translate(223,204)"/>
<path d="M0 0 C1.65 0 3.3 0 5 0 C6.54607256 8.33077934 7.4485433 16.5443306 8 25 C8.99 16.75 9.98 8.5 11 0 C12.65 0 14.3 0 16 0 C16.20310847 8.79008344 16.04733677 17.11374298 14.51171875 25.8046875 C13.65227822 31.17127034 13.33713228 36.57926787 13 42 C9.7 42 6.4 42 3 42 C1.9333707 37.73348282 1.6727172 33.66354669 1.46484375 29.296875 C1.42186661 28.45908508 1.37888947 27.62129517 1.33460999 26.75811768 C1.19853585 24.08891726 1.06794709 21.41948075 0.9375 18.75 C0.84606493 16.93748171 0.75427222 15.12498143 0.66210938 13.3125 C0.43725975 8.87519804 0.21732847 4.43767643 0 0 Z " fill="#434343" transform="translate(196,204)"/>
<path d="M0 0 C1.65 0 3.3 0 5 0 C5.9731681 2.9195043 6.1929546 5.05444951 6.31640625 8.10546875 C6.35830078 9.08837891 6.40019531 10.07128906 6.44335938 11.08398438 C6.48267578 12.10814453 6.52199219 13.13230469 6.5625 14.1875 C6.60568359 15.22326172 6.64886719 16.25902344 6.69335938 17.32617188 C6.79944366 19.8839819 6.90150146 22.44188845 7 25 C7.8475652 22.4573044 8.2361546 20.50403095 8.5 17.875 C8.5825 17.08609375 8.665 16.2971875 8.75 15.484375 C8.8325 14.66453125 8.915 13.8446875 9 13 C9.16355384 11.37468375 9.33010038 9.74966516 9.5 8.125 C9.5721875 7.40570313 9.644375 6.68640625 9.71875 5.9453125 C10 4 10 4 11 1 C12.32 1 13.64 1 15 1 C14.53726329 12.12651155 14.0674353 23.25326809 13.5 34.375 C13.46463135 35.13474121 13.4292627 35.89448242 13.39282227 36.67724609 C13.11566902 41.88433098 13.11566902 41.88433098 12 43 C10.50261876 43.0979057 9.00057108 43.12974864 7.5 43.125 C6.6853125 43.12757813 5.870625 43.13015625 5.03125 43.1328125 C3 43 3 43 2 42 C1.77052905 40.26510909 1.60435816 38.52177464 1.46484375 36.77734375 C1.3776709 35.6879248 1.29049805 34.59850586 1.20068359 33.47607422 C1.11383301 32.30834473 1.02698242 31.14061523 0.9375 29.9375 C0.84807129 28.76203613 0.75864258 27.58657227 0.66650391 26.37548828 C0.0315615 17.56006883 -0.24022457 8.83492584 0 0 Z " fill="#434343" transform="translate(111,203)"/>
<path d="M0 0 C1.65 0 3.3 0 5 0 C7.3125 2.5 7.3125 2.5 9 5 C9.33 3.35 9.66 1.7 10 0 C11.65 0 13.3 0 15 0 C15 13.86 15 27.72 15 42 C13.35 42 11.7 42 10 42 C9.98541748 41.24904053 9.97083496 40.49808105 9.95581055 39.72436523 C9.88096402 36.29491338 9.78442346 32.86639605 9.6875 29.4375 C9.66494141 28.25607422 9.64238281 27.07464844 9.61914062 25.85742188 C9.42540387 19.56978345 9.19497401 14.49851083 6 9 C5.34 8.67 4.68 8.34 4 8 C4 18.89 4 29.78 4 41 C2.68 41 1.36 41 0 41 C0 27.47 0 13.94 0 0 Z " fill="#323232" transform="translate(178,204)"/>
<path d="M0 0 C4.95 0 9.9 0 15 0 C15 1.32 15 2.64 15 4 C12.03 4 9.06 4 6 4 C6 5.98 6 7.96 6 10 C9.3 10 12.6 10 16 10 C16 11.98 16 13.96 16 16 C12.37 16 8.74 16 5 16 C5.33 22.6 5.66 29.2 6 36 C8.97 36.33 11.94 36.66 15 37 C15 38.32 15 39.64 15 41 C10.05 41 5.1 41 0 41 C0 27.47 0 13.94 0 0 Z " fill="#3F3F3F" transform="translate(92,204)"/>
<path d="M0 0 C19.47 0 38.94 0 59 0 C59 0.33 59 0.66 59 1 C57.35 1 55.7 1 54 1 C54 9.91 54 18.82 54 28 C55.65 28 57.3 28 59 28 C59 28.66 59 29.32 59 30 C39.86 30 20.72 30 1 30 C1 29.34 1 28.68 1 28 C2.65 28 4.3 28 6 28 C6 19.09 6 10.18 6 1 C4.02 1 2.04 1 0 1 C0 0.67 0 0.34 0 0 Z M8 1 C8 9.91 8 18.82 8 28 C22.52 28 37.04 28 52 28 C52 19.09 52 10.18 52 1 C37.48 1 22.96 1 8 1 Z " fill="#4E6D87" transform="translate(288,193)"/>
<path d="M0 0 C5.28 0 10.56 0 16 0 C16 5.61 16 11.22 16 17 C10.72 17 5.44 17 0 17 C0 11.39 0 5.78 0 0 Z " fill="#F7F7F8" transform="translate(310,262)"/>
<path d="M0 0 C4.62 0 9.24 0 14 0 C14 1.32 14 2.64 14 4 C12.35 4 10.7 4 9 4 C9 16.54 9 29.08 9 42 C7.35 42 5.7 42 4 42 C4 29.13 4 16.26 4 3 C2.68 3 1.36 3 0 3 C0 2.01 0 1.02 0 0 Z " fill="#363636" transform="translate(142,204)"/>
<path d="M0 0 C19.47 0 38.94 0 59 0 C59 0.99 59 1.98 59 3 C57.35 3 55.7 3 54 3 C54 11.25 54 19.5 54 28 C55.65 28 57.3 28 59 28 C59 29.32 59 30.64 59 32 C58.14245117 32.02505615 57.28490234 32.0501123 56.40136719 32.07592773 C53.2106563 32.17123412 50.02009781 32.27045751 46.82958984 32.37231445 C45.45040622 32.4155455 44.07117315 32.45722866 42.69189453 32.49731445 C40.70593062 32.55530403 38.72014731 32.61937723 36.734375 32.68359375 C34.94338379 32.73858032 34.94338379 32.73858032 33.11621094 32.79467773 C30.57536745 32.96208994 28.4228576 33.26317859 26 34 C26.495 34.495 26.495 34.495 27 35 C27.04080783 36.99958364 27.04254356 39.00045254 27 41 C25.02 41 23.04 41 21 41 C21 38.36 21 35.72 21 33 C13.74 32.67 6.48 32.34 -1 32 C-0.505 30.515 -0.505 30.515 0 29 C0 29.66 0 30.32 0 31 C19.14 31 38.28 31 58 31 C58 30.34 58 29.68 58 29 C56.35 29 54.7 29 53 29 C53 20.09 53 11.18 53 2 C35.51 1.67 18.02 1.34 0 1 C0 0.67 0 0.34 0 0 Z " fill="#A6B6C3" transform="translate(289,192)"/>
<path d="M0 0 C1.65 0 3.3 0 5 0 C5 13.86 5 27.72 5 42 C3.35 42 1.7 42 0 42 C0 28.14 0 14.28 0 0 Z " fill="#373737" transform="translate(215,204)"/>
<path d="M0 0 C7.26 0 14.52 0 22 0 C22 0.33 22 0.66 22 1 C17.38 1 12.76 1 8 1 C8 14.86 8 28.72 8 43 C9.65 43 11.3 43 13 43 C13 34.09 13 25.18 13 16 C14.65 16 16.3 16 18 16 C16.68 16.33 15.36 16.66 14 17 C14 25.91 14 34.82 14 44 C9.38 44 4.76 44 0 44 C0 43.67 0 43.34 0 43 C1.65 43 3.3 43 5 43 C5 29.14 5 15.28 5 1 C3.35 1 1.7 1 0 1 C0 0.67 0 0.34 0 0 Z " fill="#C0C0C0" transform="translate(215,203)"/>
<path d="M0 0 C0.33 0 0.66 0 1 0 C1 24.75 1 49.5 1 75 C8.92 75 16.84 75 25 75 C21.69711664 77.20192224 20.72537273 77.23959968 16.89453125 77.1953125 C15.91162109 77.18886719 14.92871094 77.18242187 13.91601562 77.17578125 C12.37977539 77.15064453 12.37977539 77.15064453 10.8125 77.125 C9.77673828 77.11597656 8.74097656 77.10695313 7.67382812 77.09765625 C5.11565315 77.0740786 2.55794252 77.0411703 0 77 C0.02320313 77.91523438 0.04640625 78.83046875 0.0703125 79.7734375 C0.08835937 80.96195312 0.10640625 82.15046875 0.125 83.375 C0.14820313 84.55835938 0.17140625 85.74171875 0.1953125 86.9609375 C0 90 0 90 -2 92 C-2 81.44 -2 70.88 -2 60 C-1.34 60 -0.68 60 0 60 C0 40.2 0 20.4 0 0 Z " fill="#8EA1B1" transform="translate(263,170)"/>
<path d="M0 0 C19.8 0 39.6 0 60 0 C60 0.99 60 1.98 60 3 C40.53 3 21.06 3 1 3 C0.67 2.01 0.34 1.02 0 0 Z " fill="#688197" transform="translate(288,177)"/>
<path d="M0 0 C1.65 0 3.3 0 5 0 C5 10.56 5 21.12 5 32 C3.35 32 1.7 32 0 32 C0 21.44 0 10.88 0 0 Z " fill="#EAEAEA" transform="translate(79,209)"/>
<path d="M0 0 C1.6875 2.3125 1.6875 2.3125 3 5 C3.99 6.485 3.99 6.485 5 8 C5 8.99 5 9.98 5 11 C-5.25344732 13.70297849 -5.25344732 13.70297849 -9 12 C-10.94925061 8.65842753 -11.21821974 5.81884554 -11 2 C-3.72900336 -0.70548712 -3.72900336 -0.70548712 0 0 Z " fill="#4F6C85" transform="translate(417,300)"/>
<path d="M0 0 C0.98248524 4.0527516 1.08159574 7.83861737 1 12 C-0.26691507 12.67408308 -1.53870749 13.33900497 -2.8125 14 C-3.52019531 14.37125 -4.22789062 14.7425 -4.95703125 15.125 C-7 16 -7 16 -10 16 C-10.33 12.04 -10.66 8.08 -11 4 C-3.375 0 -3.375 0 0 0 Z " fill="#466580" transform="translate(322,32)"/>
<path d="M0 0 C1.60875 -0.04125 3.2175 -0.0825 4.875 -0.125 C5.77992188 -0.14820313 6.68484375 -0.17140625 7.6171875 -0.1953125 C10 0 10 0 12 2 C12.4140625 4.3828125 12.4140625 4.3828125 12.625 7.125 C12.69976562 8.03507812 12.77453125 8.94515625 12.8515625 9.8828125 C12.90054687 10.58148438 12.94953125 11.28015625 13 12 C11.39592672 12.02708567 9.7917215 12.04643483 8.1875 12.0625 C6.84751953 12.07990234 6.84751953 12.07990234 5.48046875 12.09765625 C3 12 3 12 0 11 C0 7.37 0 3.74 0 0 Z " fill="#44647F" transform="translate(368,360)"/>
<path d="M0 0 C2.02910711 0.25327449 4.04962145 0.57730068 6.0625 0.9375 C7.16722656 1.13214844 8.27195312 1.32679688 9.41015625 1.52734375 C10.69212891 1.76130859 10.69212891 1.76130859 12 2 C11.26677228 5.37707769 10.11569904 7.26722207 8 10 C7.67 10.99 7.34 11.98 7 13 C-0.42857143 12 -0.42857143 12 -4 11 C-2.55172414 2.55172414 -2.55172414 2.55172414 0 0 Z " fill="#42627D" transform="translate(410,136)"/>
<path d="M0 0 C3.96 0.33 7.92 0.66 12 1 C12 4.96 12 8.92 12 13 C10.205625 12.855625 8.41125 12.71125 6.5625 12.5625 C5.04849609 12.44068359 5.04849609 12.44068359 3.50390625 12.31640625 C1 12 1 12 0 11 C-0.14310287 7.3308423 -0.04221662 3.67284559 0 0 Z " fill="#3F5F7B" transform="translate(85,60)"/>
<path d="M0 0 C1.98 0 3.96 0 6 0 C7.1845131 3.55353929 7.26641894 6.27013478 7 10 C5.04709953 12.98074282 2.32379615 13.91976625 -1 15 C-1.99 15 -2.98 15 -4 15 C-5.3271261 11.0186217 -5.06915913 7.14954773 -5 3 C-3.35 2.67 -1.7 2.34 0 2 C0 1.34 0 0.68 0 0 Z " fill="#45637F" transform="translate(130,402)"/>
<path d="M0 0 C2.6875 8.0625 2.6875 8.0625 1 12 C-1.5 13.1875 -1.5 13.1875 -4 14 C-4.33 14.66 -4.66 15.32 -5 16 C-6.32 16 -7.64 16 -9 16 C-9.33 11.71 -9.66 7.42 -10 3 C-3.375 0 -3.375 0 0 0 Z " fill="#3F607C" transform="translate(157,411)"/>
<path d="M0 0 C0.29612756 8.88382688 0.29612756 8.88382688 -2 12 C-5.33720472 12.85344908 -8.53895471 12.8225105 -12 13 C-12 9.04 -12 5.08 -12 1 C-7.76358987 0.15271797 -4.27587998 -0.08384078 0 0 Z " fill="#3B5C79" transform="translate(363,60)"/>
<path d="M0 0 C0.96070434 2.88211302 1.10581883 4.69850044 1.0625 7.6875 C1.05347656 8.49574219 1.04445313 9.30398437 1.03515625 10.13671875 C1.02355469 10.75160156 1.01195312 11.36648437 1 12 C-5.625 16 -5.625 16 -9 16 C-9.66 12.37 -10.32 8.74 -11 5 C-3.375 0 -3.375 0 0 0 Z " fill="#3D5D7A" transform="translate(299,22)"/>
<path d="M0 0 C4.2742558 1.5830577 6.26531794 4.50568404 9 8 C7.35 10.97 5.7 13.94 4 17 C0.51236907 15.25618453 -2.03368051 13.47193291 -5 11 C-4.46884894 6.48521602 -2.63379708 3.65333143 0 0 Z " fill="#3D5D7A" transform="translate(246,421)"/>
<path d="M0 0 C1.98 0 3.96 0 6 0 C6 0.66 6 1.32 6 2 C4.35 2 2.7 2 1 2 C1 15.53 1 29.06 1 43 C2.32 43 3.64 43 5 43 C5 32.11 5 21.22 5 10 C5.99 10.33 6.98 10.66 8 11 C7.88204075 15.68157901 7.75781451 20.36293288 7.62768555 25.04418945 C7.58427854 26.637893 7.54260781 28.2316448 7.50268555 29.82543945 C7.44512193 32.11163908 7.38138851 34.39759449 7.31640625 36.68359375 C7.29969376 37.40026718 7.28298126 38.11694061 7.26576233 38.85533142 C7.11387171 43.88612829 7.11387171 43.88612829 6 45 C4.02 45 2.04 45 0 45 C0 30.15 0 15.3 0 0 Z " fill="#A4A4A4" transform="translate(177,202)"/>
<path d="M0 0 C0.5345256 1.24420647 1.05208611 2.49570936 1.5625 3.75 C1.85253906 4.44609375 2.14257812 5.1421875 2.44140625 5.859375 C3.09960865 8.38171707 2.97593395 9.59466785 2 12 C0.17889351 14.01755238 -1.78668211 15.3738889 -4 17 C-4.66 17 -5.32 17 -6 17 C-6.70226141 15.75823305 -7.38629109 14.50614401 -8.0625 13.25 C-8.44535156 12.55390625 -8.82820313 11.8578125 -9.22265625 11.140625 C-10.15753091 8.56619629 -10.05313954 7.50698582 -9 5 C-3.77272727 0 -3.77272727 0 0 0 Z " fill="#355774" transform="translate(275,15)"/>
<path d="M0 0 C3.94229943 0.56318563 6.94249087 1.37927789 10 4 C10.46477086 8.18293776 9.98793884 11.92475227 9 16 C4.80639551 15.32902328 1.59665648 13.1441606 -2 11 C-1 3.57142857 -1 3.57142857 0 0 Z " fill="#3A5C78" transform="translate(290,411)"/>
<path d="M0 0 C3.3 0 6.6 0 10 0 C10.125 8.75 10.125 8.75 9 11 C4.71 11 0.42 11 -4 11 C-3.1302743 6.65137149 -2.0525056 3.83729307 0 0 Z " fill="#3B5C79" transform="translate(54,343)"/>
<path d="M0 0 C3.21929786 3.74134616 4.01698766 6.0849383 5 11 C1.04 11 -2.92 11 -7 11 C-11 4.375 -11 4.375 -11 1 C-7.24398553 0.11623189 -3.83805308 -0.57162493 0 0 Z " fill="#3F5F7B" transform="translate(406,322)"/>
<path d="M0 0 C4 4.10810811 4 4.10810811 4 8 C-1.2250225 11.03780378 -1.2250225 11.03780378 -4.5625 10.875 C-7.37464738 9.8655112 -9.60412814 8.79690389 -12 7 C-12.8125 4.8125 -12.8125 4.8125 -13 3 C-12.01 3 -11.02 3 -10 3 C-10 2.34 -10 1.68 -10 1 C-6.26717845 -0.81308475 -3.94632853 -1.51781866 0 0 Z " fill="#3D5E7A" transform="translate(24,183)"/>
<path d="M0 0 C3.43595166 1.52708963 6.11912454 3.59927045 9 6 C8.44894091 9.9492568 7.61064629 13.34920174 6 17 C1.62140745 16.49477778 -0.81651224 13.82172778 -4 11 C-3.52269162 9.5410574 -3.04308958 8.08286504 -2.5625 6.625 C-2.29566406 5.81289063 -2.02882812 5.00078125 -1.75390625 4.1640625 C-1 2 -1 2 0 0 Z " fill="#3C5D79" transform="translate(173,15)"/>
<path d="M0 0 C2.97797798 6.07507508 2.97797798 6.07507508 3.0625 9.625 C1.45931075 13.2085995 -0.81151161 14.72250829 -4 17 C-4.66 17 -5.32 17 -6 17 C-6.33 15.02 -6.66 13.04 -7 11 C-7.66 11 -8.32 11 -9 11 C-9.33 9.35 -9.66 7.7 -10 6 C-8.90398831 4.99106869 -7.79786082 3.99311775 -6.6875 3 C-6.07261719 2.443125 -5.45773438 1.88625 -4.82421875 1.3125 C-3 0 -3 0 0 0 Z " fill="#315372" transform="translate(179,417)"/>
<path d="M0 0 C4.455 0.99 4.455 0.99 9 2 C10 6 10 6 9.22265625 7.921875 C8.1484375 9.61458333 7.07421875 11.30729167 6 13 C2.7 12.34 -0.6 11.68 -4 11 C-5 7 -5 7 -4.00390625 5.078125 C-2.66927083 3.38541667 -1.33463542 1.69270833 0 0 Z " fill="#3B5C79" transform="translate(31,300)"/>
<path d="M0 0 C3.48050799 1.54689244 6.37002149 3.21973701 9 6 C8.8125 9.75 8.8125 9.75 8 13 C7.34 13 6.68 13 6 13 C5.67 13.99 5.34 14.98 5 16 C1.12867972 15.42647107 -1.08172796 13.51295648 -4 11 C-3.39301257 6.87248551 -1.96189209 3.6678852 0 0 Z " fill="#3A5C78" transform="translate(269,417)"/>
<path d="M0 0 C3.30227691 -0.37740308 4.8910311 -0.05685334 7.875 1.5 C10 4 10 4 10.125 5.94140625 C9.74928999 9.12907088 9.01605164 11.95184509 8 15 C4.7 14.01 1.4 13.02 -2 12 C-2.21278058 7.53160785 -1.59138085 4.17737474 0 0 Z " fill="#3A5B78" transform="translate(149,23)"/>
<path d="M0 0 C3.7364797 0.93411993 6.60899585 2.22742965 10 4 C10 7.96 10 11.92 10 16 C5.24126419 15.44665863 3.34289662 14.60573797 -1 12 C-0.67 8.04 -0.34 4.08 0 0 Z " fill="#3B5C79" transform="translate(312,401)"/>
<path d="M0 0 C0 3.96 0 7.92 0 12 C-3.63 12.33 -7.26 12.66 -11 13 C-11 9.37 -11 5.74 -11 2 C-6.9402698 0.48940272 -4.45389333 0 0 0 Z " fill="#3A5B78" transform="translate(97,376)"/>
<path d="M0 0 C3.5786304 1.65167557 6.74820188 3.78286492 10 6 C9.875 7.8125 9.875 7.8125 9 10 C6.0208232 11.96354835 4.03984695 13.05072424 0.4375 12.875 C-2.29625018 11.89365378 -4.57649767 10.59258725 -7 9 C-5.44499019 5.18315774 -2.96404505 2.80804268 0 0 Z " fill="#305371" transform="translate(428,205)"/>
<path d="M0 0 C4.20626034 1.50223584 5.73900021 4.28550034 8 8 C7.38125 8.2475 6.7625 8.495 6.125 8.75 C3.64931313 10.20628639 3.04874998 11.37812506 2 14 C-2 14 -2 14 -4.75 11.75 C-7 9 -7 9 -7 5 C-5.46875 3.515625 -5.46875 3.515625 -3.5 2.25 C-2.8503125 1.82203125 -2.200625 1.3940625 -1.53125 0.953125 C-1.0259375 0.63859375 -0.520625 0.3240625 0 0 Z " fill="#405F7B" transform="translate(17,205)"/>
<path d="M0 0 C0.67408308 1.26691507 1.33900497 2.53870749 2 3.8125 C2.556875 4.87404297 2.556875 4.87404297 3.125 5.95703125 C4 8 4 8 4 11 C1.75 13.75 1.75 13.75 -1 16 C-3.25 16 -3.25 16 -5 15 C-5.33 14.01 -5.66 13.02 -6 12 C-6.99 11.67 -7.98 11.34 -9 11 C-9.4375 8.875 -9.4375 8.875 -9 6 C-3.64637002 0 -3.64637002 0 0 0 Z " fill="#3E5D79" transform="translate(250,11)"/>
<path d="M0 0 C3.96 0 7.92 0 12 0 C13.71466036 3.42932071 13.05404056 7.21716065 13 11 C9.7 11 6.4 11 3 11 C0 4.5 0 4.5 0 0 Z " fill="#3B5C78" transform="translate(51,95)"/>
<path d="M0 0 C3.63 0.33 7.26 0.66 11 1 C11 4.96 11 8.92 11 13 C7.37 12.67 3.74 12.34 0 12 C0 8.04 0 4.08 0 0 Z " fill="#355774" transform="translate(351,376)"/>
<path d="M0 0 C1.703125 1.4609375 1.703125 1.4609375 3.25 3.375 C3.77078125 4.00148438 4.2915625 4.62796875 4.828125 5.2734375 C6 7 6 7 6 9 C4.35 9.33 2.7 9.66 1 10 C1 10.66 1 11.32 1 12 C-0.98 12.33 -2.96 12.66 -5 13 C-8 9.25 -8 9.25 -8 7 C-8.66 7 -9.32 7 -10 7 C-9.8125 5.1875 -9.8125 5.1875 -9 3 C-5.65188866 0.46629412 -4.29875783 0 0 0 Z " fill="#3A5B78" transform="translate(429,254)"/>
<path d="M0 0 C1.16796875 1.5234375 1.16796875 1.5234375 2.1875 3.375 C2.53167969 3.98085937 2.87585937 4.58671875 3.23046875 5.2109375 C4 7 4 7 4 10 C0.28219066 10.77481491 -3.20207223 11.31427453 -7 11 C-9.54914246 9.11861627 -11.01335156 7.01054267 -12 4 C-11.67 3.01 -11.34 2.02 -11 1 C-9.2578125 0.234375 -9.2578125 0.234375 -7.125 -0.25 C-6.07699219 -0.50523437 -6.07699219 -0.50523437 -5.0078125 -0.765625 C-3 -1 -3 -1 0 0 Z " fill="#3A5B78" transform="translate(38,137)"/>
<path d="M0 0 C3.96 0 7.92 0 12 0 C11.67 2.31 11.34 4.62 11 7 C10.34 7 9.68 7 9 7 C9 8.32 9 9.64 9 11 C5.37 11 1.74 11 -2 11 C-1.49547781 7.25212088 -0.91840767 3.67363066 0 0 Z " fill="#365876" transform="translate(385,95)"/>
<path d="M0 0 C3.46827222 0.28902269 4.80653554 0.81671788 7.375 3.25 C9 6 9 6 8.9375 8.5 C7.91057457 11.23846782 6.60418269 13.55885242 5 16 C1.12867972 15.42647107 -1.08172796 13.51295648 -4 11 C-3.21681311 7.08406554 -1.60820142 3.63593365 0 0 Z " fill="#385976" transform="translate(197,11)"/>
<path d="M0 0 C3.55739389 1.47501698 5.76934187 3.39925621 8.5625 6.0625 C8.5625 6.7225 8.5625 7.3825 8.5625 8.0625 C4.17788462 11.0625 4.17788462 11.0625 1.5625 11.0625 C1.5625 11.7225 1.5625 12.3825 1.5625 13.0625 C-2.81609255 12.55727778 -5.25401224 9.88422778 -8.4375 7.0625 C-7.04417581 2.88252744 -4.61353701 0.11829582 0 0 Z " fill="#395A77" transform="translate(429.4375,229.9375)"/>
<path d="M0 0 C0 3.96 0 7.92 0 12 C-0.66 12 -1.32 12 -2 12 C-2 12.66 -2 13.32 -2 14 C-4.64 14.33 -7.28 14.66 -10 15 C-11.20272819 12.59454362 -11.10071472 11.05003047 -11.0625 8.375 C-11.05347656 7.55773438 -11.04445313 6.74046875 -11.03515625 5.8984375 C-11.02355469 5.27195312 -11.01195312 4.64546875 -11 4 C-9.35500958 3.33125616 -7.70898352 2.66505926 -6.0625 2 C-5.14597656 1.62875 -4.22945313 1.2575 -3.28515625 0.875 C-1 0 -1 0 0 0 Z " fill="#3C5D79" transform="translate(342,44)"/>
<path d="M0 0 C4.60057086 0.92011417 7.79672559 2.10440566 12 4 C11.67 7.3 11.34 10.6 11 14 C7.25212088 13.49547781 3.67363066 12.91840767 0 12 C0 8.04 0 4.08 0 0 Z " fill="#365875" transform="translate(105,44)"/>
<path d="M0 0 C2.875 0.9375 2.875 0.9375 5.875 2.9375 C5.17558404 6.08487182 4.11421302 8.96338876 2.875 11.9375 C-2.00164009 12.28583144 -4.89550005 11.35435712 -9.125 8.9375 C-8.78593677 5.88593089 -7.86458327 4.60267849 -5.9375 2.125 C-3.125 -0.0625 -3.125 -0.0625 0 0 Z " fill="#385976" transform="translate(27.125,278.0625)"/>
<path d="M0 0 C2.33671198 2.7056665 3.96099488 4.5958157 4.0625 8.25 C2.49001119 10.83998158 0.88565261 11.2618098 -2 12 C-4.97464919 11.81971823 -5.96337877 11.03153495 -8.25 9.0625 C-10 7 -10 7 -10 5 C-10.66 5 -11.32 5 -12 5 C-12 4.01 -12 3.02 -12 2 C-3.33 -0.72 -3.33 -0.72 0 0 Z " fill="#395A77" transform="translate(29,159)"/>
<path d="M0 0 C4.3890815 0.51035831 7.33708062 1.52214277 11 4 C9.4169423 8.2742558 6.49431596 10.26531794 3 13 C0.36 11.68 -2.28 10.36 -5 9 C-3.96846241 4.87384964 -2.71595986 3.1540179 0 0 Z " fill="#365875" transform="translate(424,182)"/>
<path d="M0 0 C3.09998746 0.33214151 4.0545012 1.0545012 6.3125 3.3125 C8 6 8 6 8 7.9375 C6.57783608 10.87071308 4.99429248 13.41915091 3 16 C2.01 16 1.02 16 0 16 C-3 11.77777778 -3 11.77777778 -3 9 C-3.66 9 -4.32 9 -5 9 C-4.42647107 5.12867972 -2.51295648 2.91827204 0 0 Z " fill="#2F5271" transform="translate(222,423)"/>
<path d="M0 0 C2.4375 1.0625 2.4375 1.0625 4 2 C4 2.99 4 3.98 4 5 C3.34 5 2.68 5 2 5 C1.566875 5.928125 1.566875 5.928125 1.125 6.875 C0 9 0 9 -2 11 C-5.0625 10.75 -5.0625 10.75 -8 10 C-8.33 9.34 -8.66 8.68 -9 8 C-9.99 7.67 -10.98 7.34 -12 7 C-9.46766192 -0.20742376 -7.74347088 -1.76605476 0 0 Z " fill="#325573" transform="translate(24,256)"/>
<path d="M0 0 C2.57514869 3.1319376 4 4.89410579 4 9 C-2.19198056 11.97691373 -2.19198056 11.97691373 -5.1875 12.0625 C-8.11361721 10.34718991 -9.37094029 7.9090352 -11 5 C-11 4.01 -11 3.02 -11 2 C-3.59243697 -0.75630252 -3.59243697 -0.75630252 0 0 Z " fill="#365875" transform="translate(425,278)"/>
<path d="M0 0 C3.9492568 0.55105909 7.34920174 1.38935371 11 3 C10.42177625 6.90301031 8.89323061 9.33518233 6 12 C2.33500872 11.87140381 -0.53421195 11.15526268 -4 10 C-3.43454163 6.04179141 -2.19097652 3.3340947 0 0 Z " fill="#375876" transform="translate(418,159)"/>
<path d="M0 0 C1.875 0.25 1.875 0.25 4 1 C5.125 3 5.125 3 6 5 C6.66 5.33 7.32 5.66 8 6 C8 7.32 8 8.64 8 10 C7.01 10.66 6.02 11.32 5 12 C3.80767387 14.05003955 3.80767387 14.05003955 3 16 C1.125 15.75 1.125 15.75 -1 15 C-2.125 13 -2.125 13 -3 11 C-3.66 10.67 -4.32 10.34 -5 10 C-4.38545304 6.00544473 -2.29353263 3.25533664 0 0 Z " fill="#3B5C78" transform="translate(222,10)"/>
<path d="M0 0 C0 0.66 0 1.32 0 2 C0.99 2.33 1.98 2.66 3 3 C1.73400961 6.79797116 0.37545234 7.89971854 -3 10 C-7.3574326 9.90922015 -10.54319108 8.64344212 -14 6 C-14 5.01 -14 4.02 -14 3 C-8.8269357 -0.48390045 -6.32765881 -1.54963073 0 0 Z " fill="#375976" transform="translate(23,232)"/>
<path d="M0 0 C3.63 0 7.26 0 11 0 C11.125 6.625 11.125 6.625 10 10 C6.50970582 11.47666292 2.72563614 11.07164685 -1 11 C-1.125 3.375 -1.125 3.375 0 0 Z " fill="#355775" transform="translate(68,361)"/>
<path d="M0 0 C3.7910119 1.44950455 7.3874638 3.15172566 11 5 C10.34 8.3 9.68 11.6 9 15 C5.7 14.01 2.4 13.02 -1 12 C-1.125 2.25 -1.125 2.25 0 0 Z " fill="#355775" transform="translate(126,32)"/>
<path d="M0 0 C2.32732395 1.41301812 2.89087441 2.48512323 3.75 5.0625 C4.1875 7.5 4.1875 7.5 3.75 10.0625 C1.4375 12.875 1.4375 12.875 -1.25 15.0625 C-2.24 15.0625 -3.23 15.0625 -4.25 15.0625 C-4.58 13.4125 -4.91 11.7625 -5.25 10.0625 C-5.91 10.0625 -6.57 10.0625 -7.25 10.0625 C-7.58 8.4125 -7.91 6.7625 -8.25 5.0625 C-2.90363128 0.08065642 -2.90363128 0.08065642 0 0 Z " fill="#294D6D" transform="translate(201.25,421.9375)"/>
<path d="M0 0 C0.99 0 1.98 0 3 0 C3 0.66 3 1.32 3 2 C5.31 2.33 7.62 2.66 10 3 C10 6.96 10 10.92 10 15 C6.37 13.68 2.74 12.36 -1 11 C-1.125 3.375 -1.125 3.375 0 0 Z " fill="#335673" transform="translate(332,390)"/>
<path d="M0 0 C3.3 0 6.6 0 10 0 C13 7.625 13 7.625 13 11 C9.37 11 5.74 11 2 11 C0.80712589 7.12315913 0 4.08378077 0 0 Z " fill="#305371" transform="translate(384,343)"/>
<path d="M0 0 C3.96388638 -0.07622858 7.1273408 0.0318352 11 1 C11.33 4.3 11.66 7.6 12 11 C8.7 11 5.4 11 2 11 C0.19769832 7.17010894 -0.19622241 4.21878192 0 0 Z " fill="#315472" transform="translate(67,77)"/>
<path d="M0 0 C-0.30782496 1.64671412 -0.62139234 3.29235576 -0.9375 4.9375 C-1.11152344 5.85402344 -1.28554688 6.77054687 -1.46484375 7.71484375 C-2 10 -2 10 -3 11 C-6.00331018 11.14193337 -8.99217134 11.04236378 -12 11 C-12 7.7 -12 4.4 -12 1 C-7.9472484 0.01751476 -4.16138263 -0.08159574 0 0 Z " fill="#2D516F" transform="translate(381,77)"/>
<path d="M0 0 C3.96 0 7.92 0 12 0 C12.66 2.97 13.32 5.94 14 9 C10.78548731 10.60725635 7.56387464 10.05748185 4 10 C0 3.375 0 3.375 0 0 Z " fill="#2F5270" transform="translate(37,116)"/>
<path d="M0 0 C0.0270043 1.45823212 0.04639787 2.91660675 0.0625 4.375 C0.07410156 5.18710937 0.08570312 5.99921875 0.09765625 6.8359375 C0 9 0 9 -1 11 C-2.32 11 -3.64 11 -5 11 C-5 11.66 -5 12.32 -5 13 C-6.65 13.33 -8.3 13.66 -10 14 C-10 10.04 -10 6.08 -10 2 C-3.375 0 -3.375 0 0 0 Z " fill="#2F5170" transform="translate(115,391)"/>
<path d="M0 0 C2.0078125 0.1328125 2.0078125 0.1328125 5.0078125 1.1328125 C4.3478125 4.1028125 3.6878125 7.0728125 3.0078125 10.1328125 C-4.42075893 10.27566964 -4.42075893 10.27566964 -7.9921875 9.1328125 C-6.9802925 0.02575754 -6.9802925 0.02575754 0 0 Z " fill="#335574" transform="translate(45.9921875,322.8671875)"/>
<path d="M0 0 C0.99 0 1.98 0 3 0 C3 5.94 3 11.88 3 18 C11.25 18.33 19.5 18.66 28 19 C28.33 18.34 28.66 17.68 29 17 C29 17.99 29 18.98 29 20 C17.45 20 5.9 20 -6 20 C-6.33 19.01 -6.66 18.02 -7 17 C-4.69 17 -2.38 17 0 17 C0 11.39 0 5.78 0 0 Z " fill="#7C92A4" transform="translate(307,262)"/>
<path d="M0 0 C4.16138263 -0.08159574 7.9472484 0.01751476 12 1 C11.67 2.98 11.34 4.96 11 7 C10.34 7 9.68 7 9 7 C8.67 7.99 8.34 8.98 8 10 C5.36 10 2.72 10 0 10 C-0.95024979 6.30458414 -0.95024979 3.69541586 0 0 Z " fill="#2C506F" transform="translate(398,116)"/>
<path d="M0 0 C1.48831242 0.00667405 2.97660807 0.01863442 4.46484375 0.03515625 C5.22345703 0.03966797 5.98207031 0.04417969 6.76367188 0.04882812 C8.64326246 0.06064945 10.52281274 0.07858547 12.40234375 0.09765625 C12.40234375 2.40765625 12.40234375 4.71765625 12.40234375 7.09765625 C10.75234375 7.09765625 9.10234375 7.09765625 7.40234375 7.09765625 C7.40234375 19.30765625 7.40234375 31.51765625 7.40234375 44.09765625 C7.07234375 44.09765625 6.74234375 44.09765625 6.40234375 44.09765625 C6.40234375 31.55765625 6.40234375 19.01765625 6.40234375 6.09765625 C8.05234375 6.09765625 9.70234375 6.09765625 11.40234375 6.09765625 C11.40234375 4.77765625 11.40234375 3.45765625 11.40234375 2.09765625 C6.78234375 2.09765625 2.16234375 2.09765625 -2.59765625 2.09765625 C-2.59765625 3.08765625 -2.59765625 4.07765625 -2.59765625 5.09765625 C-1.27765625 5.09765625 0.04234375 5.09765625 1.40234375 5.09765625 C1.40234375 5.75765625 1.40234375 6.41765625 1.40234375 7.09765625 C-0.2637753 7.14037725 -1.9314851 7.13829457 -3.59765625 7.09765625 C-4.59765625 6.09765625 -4.59765625 6.09765625 -4.72265625 3.59765625 C-4.52490553 -0.35735814 -4.12100293 0.11186219 0 0 Z " fill="#C1C1C1" transform="translate(144.59765625,201.90234375)"/>
<path d="M0 0 C1.32 0 2.64 0 4 0 C4 7.26 4 14.52 4 22 C2.68 22 1.36 22 0 22 C0 14.74 0 7.48 0 0 Z " fill="#F3F3F3" transform="translate(165,209)"/>
<path d="M0 0 C4.62 0 9.24 0 14 0 C12.02 0.99 12.02 0.99 10 2 C10.33 2.33 10.66 2.66 11 3 C11.04080783 4.99958364 11.04254356 7.00045254 11 9 C9.02 9 7.04 9 5 9 C5 6.36 5 3.72 5 1 C3.35 1 1.7 1 0 1 C0 0.67 0 0.34 0 0 Z " fill="#D5DDE4" transform="translate(305,224)"/>
<path d="M0 0 C0.33 0 0.66 0 1 0 C1 8.91 1 17.82 1 27 C2.65 27 4.3 27 6 27 C6 27.66 6 28.32 6 29 C3.36 29 0.72 29 -2 29 C-1.34 19.43 -0.68 9.86 0 0 Z " fill="#5E798F" transform="translate(341,194)"/>
<path d="M0 0 C0.99 0 1.98 0 3 0 C3 5.61 3 11.22 3 17 C2.01 17 1.02 17 0 17 C0 11.39 0 5.78 0 0 Z " fill="#728A9E" transform="translate(326,262)"/>
<path d="M0 0 C2.5 0.125 2.5 0.125 3.5 1.125 C3.21269945 3.46444736 2.88063221 5.7989143 2.5 8.125 C-2.375 7.25 -2.375 7.25 -3.5 6.125 C-3.625 3.625 -3.625 3.625 -3.5 1.125 C-2.5 0.125 -2.5 0.125 0 0 Z " fill="#526F88" transform="translate(237.5,407.875)"/>
<path d="M0 0 C1.98 0 3.96 0 6 0 C7.125 4.75 7.125 4.75 6 7 C3.625 7.125 3.625 7.125 1 7 C0.34 6.34 -0.32 5.68 -1 5 C-0.625 2.375 -0.625 2.375 0 0 Z " fill="#7C92A4" transform="translate(43,286)"/>
<path d="M0 0 C1.32 0 2.64 0 4 0 C5.35439668 2.70879335 5.06501451 5.00933268 5 8 C2.625 8.125 2.625 8.125 0 8 C-0.66 7.34 -1.32 6.68 -2 6 C-1.44444444 1.44444444 -1.44444444 1.44444444 0 0 Z " fill="#56738B" transform="translate(201,407)"/>
<path d="M0 0 C1.4540625 0.0309375 1.4540625 0.0309375 2.9375 0.0625 C3.5625 2.4375 3.5625 2.4375 3.9375 5.0625 C1.9375 7.0625 1.9375 7.0625 -0.6875 7.1875 C-1.47125 7.14625 -2.255 7.105 -3.0625 7.0625 C-3.44383299 5.0710944 -3.77575582 3.06970923 -4.0625 1.0625 C-3.0625 0.0625 -3.0625 0.0625 0 0 Z " fill="#55728A" transform="translate(353.0625,356.9375)"/>
<path d="M0 0 C2.64 0 5.28 0 8 0 C8 1.98 8 3.96 8 6 C5.36 6 2.72 6 0 6 C0 4.02 0 2.04 0 0 Z " fill="#4E4E4E" transform="translate(130,214)"/>
<path d="M0 0 C1 1 1 1 1.0625 4.0625 C1.041875 5.031875 1.02125 6.00125 1 7 C-1.375 7.125 -1.375 7.125 -4 7 C-6 5 -6 5 -6.125 2.375 C-6.08375 1.59125 -6.0425 0.8075 -6 0 C-3.49749232 -1.25125384 -2.59701335 -0.83774624 0 0 Z " fill="#537089" transform="translate(125,62)"/>
<path d="M0 0 C3.53571429 0.53571429 3.53571429 0.53571429 5 2 C5.04080783 3.99958364 5.04254356 6.00045254 5 8 C3.02 8 1.04 8 -1 8 C-1.625 5.125 -1.625 5.125 -2 2 C-1.34 1.34 -0.68 0.68 0 0 Z " fill="#798FA2" transform="translate(131,55)"/>
<path d="M0 0 C1.67542976 0.28604898 3.34385343 0.61781233 5 1 C5.625 3.375 5.625 3.375 6 6 C5.34 6.66 4.68 7.32 4 8 C2.68 8 1.36 8 0 8 C-0.38063221 5.6739143 -0.71269945 3.33944736 -1 1 C-0.67 0.67 -0.34 0.34 0 0 Z " fill="#506D86" transform="translate(323,378)"/>
<path d="M0 0 C3.69230769 0.69230769 3.69230769 0.69230769 5 2 C5.04080783 3.99958364 5.04254356 6.00045254 5 8 C2.625 8.125 2.625 8.125 0 8 C-0.66 7.34 -1.32 6.68 -2 6 C-1.44444444 1.44444444 -1.44444444 1.44444444 0 0 Z " fill="#55718A" transform="translate(70,108)"/>
<path d="M0 0 C1.4540625 0.0309375 1.4540625 0.0309375 2.9375 0.0625 C3.2675 1.7125 3.5975 3.3625 3.9375 5.0625 C0.9375 7.0625 0.9375 7.0625 -1.25 6.6875 C-1.848125 6.48125 -2.44625 6.275 -3.0625 6.0625 C-3.44468767 4.40635343 -3.77645102 2.73792976 -4.0625 1.0625 C-3.0625 0.0625 -3.0625 0.0625 0 0 Z " fill="#54718A" transform="translate(296.0625,47.9375)"/>
<path d="M0 0 C1.32 0 2.64 0 4 0 C4.33 2.64 4.66 5.28 5 8 C2.625 8.125 2.625 8.125 0 8 C-0.66 7.34 -1.32 6.68 -2 6 C-1.44444444 1.44444444 -1.44444444 1.44444444 0 0 Z " fill="#506D87" transform="translate(247,34)"/>
<path d="M0 0 C1.67542976 0.28604898 3.34385343 0.61781233 5 1 C5.625 3.375 5.625 3.375 6 6 C5.34 6.66 4.68 7.32 4 8 C0.46428571 7.46428571 0.46428571 7.46428571 -1 6 C-1.125 3.5 -1.125 3.5 -1 1 C-0.67 0.67 -0.34 0.34 0 0 Z " fill="#516E87" transform="translate(270,402)"/>
<path d="M0 0 C1.65 0 3.3 0 5 0 C5.625 2.875 5.625 2.875 6 6 C5.34 6.66 4.68 7.32 4 8 C1.875 7.625 1.875 7.625 0 7 C-1.125 2.25 -1.125 2.25 0 0 Z " fill="#506D87" transform="translate(79,345)"/>
<path d="M0 0 C1.67542976 0.28604898 3.34385343 0.61781233 5 1 C5.33 2.65 5.66 4.3 6 6 C0.25 7.125 0.25 7.125 -2 6 C-1.125 1.125 -1.125 1.125 0 0 Z " fill="#4B6A85" transform="translate(391,300)"/>
<path d="M0 0 C1.99954746 -0.04254356 4.00041636 -0.04080783 6 0 C7 1 7 1 7.0625 3.5625 C7.041875 4.366875 7.02125 5.17125 7 6 C4.69 6.33 2.38 6.66 0 7 C0 4.69 0 2.38 0 0 Z " fill="#547089" transform="translate(39,275)"/>
<path d="M0 0 C2.625 0.375 2.625 0.375 5 1 C6.125 4.75 6.125 4.75 5 7 C3.02 7 1.04 7 -1 7 C-1.625 4.625 -1.625 4.625 -2 2 C-1.34 1.34 -0.68 0.68 0 0 Z " fill="#526F88" transform="translate(35,252)"/>
<path d="M0 0 C2.5 0.125 2.5 0.125 3.5 1.125 C3.625 3.625 3.625 3.625 3.5 6.125 C2.5 7.125 2.5 7.125 -0.5625 7.1875 C-2.0165625 7.1565625 -2.0165625 7.1565625 -3.5 7.125 C-3.54254356 5.12545254 -3.54080783 3.12458364 -3.5 1.125 C-2.5 0.125 -2.5 0.125 0 0 Z " fill="#516E87" transform="translate(48.5,148.875)"/>
<path d="M0 0 C1.4540625 0.0309375 1.4540625 0.0309375 2.9375 0.0625 C2.9375 2.3725 2.9375 4.6825 2.9375 7.0625 C0.6275 6.7325 -1.6825 6.4025 -4.0625 6.0625 C-4.105221 4.39638095 -4.10313832 2.72867115 -4.0625 1.0625 C-3.0625 0.0625 -3.0625 0.0625 0 0 Z " fill="#537089" transform="translate(54.0625,138.9375)"/>
<path d="M0 0 C2.625 0.375 2.625 0.375 5 1 C5.125 3.375 5.125 3.375 5 6 C4.34 6.66 3.68 7.32 3 8 C0.875 7.625 0.875 7.625 -1 7 C-1.625 4.625 -1.625 4.625 -2 2 C-1.34 1.34 -0.68 0.68 0 0 Z " fill="#4F6C86" transform="translate(315,57)"/>
<path d="M0 0 C1.67542976 0.28604898 3.34385343 0.61781233 5 1 C5.625 3.375 5.625 3.375 6 6 C5.34 6.66 4.68 7.32 4 8 C0.46428571 7.46428571 0.46428571 7.46428571 -1 6 C-1.125 3.5 -1.125 3.5 -1 1 C-0.67 0.67 -0.34 0.34 0 0 Z " fill="#4F6D86" transform="translate(304,52)"/>
<path d="M0 0 C1.4540625 0.0309375 1.4540625 0.0309375 2.9375 0.0625 C3.2675 1.7125 3.5975 3.3625 3.9375 5.0625 C0.9375 7.0625 0.9375 7.0625 -1.25 6.6875 C-1.848125 6.48125 -2.44625 6.275 -3.0625 6.0625 C-3.44468767 4.40635343 -3.77645102 2.73792976 -4.0625 1.0625 C-3.0625 0.0625 -3.0625 0.0625 0 0 Z " fill="#335673" transform="translate(165.0625,41.9375)"/>
<path d="M0 0 C1.67542976 0.28604898 3.34385343 0.61781233 5 1 C5.625 3.375 5.625 3.375 6 6 C5.34 6.66 4.68 7.32 4 8 C0.46428571 7.46428571 0.46428571 7.46428571 -1 6 C-1.125 3.5 -1.125 3.5 -1 1 C-0.67 0.67 -0.34 0.34 0 0 Z " fill="#496782" transform="translate(313,384)"/>
<path d="M0 0 C2.00720923 0.28674418 4.0085944 0.61866701 6 1 C6 2.98 6 4.96 6 7 C4.00045254 7.04254356 1.99958364 7.04080783 0 7 C-1 6 -1 6 -1.125 3.5 C-1 1 -1 1 0 0 Z " fill="#4B6A84" transform="translate(36,182)"/>
<path d="M0 0 C2.31 0 4.62 0 7 0 C7 1.98 7 3.96 7 6 C4.625 6.625 4.625 6.625 2 7 C0 5 0 5 -0.125 2.375 C-0.08375 1.59125 -0.0425 0.8075 0 0 Z " fill="#688096" transform="translate(172,39)"/>
<path d="M0 0 C1.67542976 0.28604898 3.34385343 0.61781233 5 1 C5 3.31 5 5.62 5 8 C3.33388095 8.042721 1.66617115 8.04063832 0 8 C-1 7 -1 7 -1.125 4 C-1 1 -1 1 0 0 Z " fill="#526F88" transform="translate(271,39)"/>
<path d="M0 0 C1.4540625 0.0309375 1.4540625 0.0309375 2.9375 0.0625 C3.0625 2.4375 3.0625 2.4375 2.9375 5.0625 C2.2775 5.7225 1.6175 6.3825 0.9375 7.0625 C-1.6875 6.6875 -1.6875 6.6875 -4.0625 6.0625 C-4.105221 4.39638095 -4.10313832 2.72867115 -4.0625 1.0625 C-3.0625 0.0625 -3.0625 0.0625 0 0 Z " fill="#486782" transform="translate(227.0625,408.9375)"/>
<path d="M0 0 C2.5 0.125 2.5 0.125 3.5 1.125 C3.54063832 2.79117115 3.542721 4.45888095 3.5 6.125 C1.5085944 6.50633299 -0.49279077 6.83825582 -2.5 7.125 C-3.5 6.125 -3.5 6.125 -3.625 3.625 C-3.45661291 0.25725827 -3.36774173 0.16838709 0 0 Z " fill="#466580" transform="translate(283.5,398.875)"/>
<path d="M0 0 C4.70588235 0.70588235 4.70588235 0.70588235 6 2 C6.04063832 3.66617115 6.042721 5.33388095 6 7 C4.00045254 7.04254356 1.99958364 7.04080783 0 7 C-1 6 -1 6 -1.125 3.5 C-1 1 -1 1 0 0 Z " fill="#4C6A84" transform="translate(39,171)"/>
<path d="M0 0 C1.66611905 -0.042721 3.33382885 -0.04063832 5 0 C6 1 6 1 6.0625 4.0625 C6.041875 5.031875 6.02125 6.00125 6 7 C3.625 7.125 3.625 7.125 1 7 C0.34 6.34 -0.32 5.68 -1 5 C-0.625 2.375 -0.625 2.375 0 0 Z " fill="#4E6C86" transform="translate(42,160)"/>
<path d="M0 0 C1.2065625 0.0309375 1.2065625 0.0309375 2.4375 0.0625 C3.0625 2.4375 3.0625 2.4375 3.4375 5.0625 C2.7775 5.7225 2.1175 6.3825 1.4375 7.0625 C-1.1875 6.6875 -1.1875 6.6875 -3.5625 6.0625 C-3.605221 4.39638095 -3.60313832 2.72867115 -3.5625 1.0625 C-2.5625 0.0625 -2.5625 0.0625 0 0 Z " fill="#4A6882" transform="translate(249.5625,406.9375)"/>
<path d="M0 0 C1.66611905 -0.042721 3.33382885 -0.04063832 5 0 C6 1 6 1 6.0625 3.5625 C6.041875 4.366875 6.02125 5.17125 6 6 C3.625 6.625 3.625 6.625 1 7 C0.34 6.34 -0.32 5.68 -1 5 C-0.625 2.375 -0.625 2.375 0 0 Z " fill="#486782" transform="translate(332,372)"/>
<path d="M0 0 C1.67542976 0.28604898 3.34385343 0.61781233 5 1 C4.67 3.31 4.34 5.62 4 8 C2.35 7.67 0.7 7.34 -1 7 C-1.04254356 5.00045254 -1.04080783 2.99958364 -1 1 C-0.67 0.67 -0.34 0.34 0 0 Z " fill="#4F6D86" transform="translate(96,361)"/>
<path d="M0 0 C1.2065625 0.0309375 1.2065625 0.0309375 2.4375 0.0625 C3.0625 2.4375 3.0625 2.4375 3.4375 5.0625 C1.4375 7.0625 1.4375 7.0625 -1.1875 7.1875 C-1.97125 7.14625 -2.755 7.105 -3.5625 7.0625 C-3.60504356 5.06295254 -3.60330783 3.06208364 -3.5625 1.0625 C-2.5625 0.0625 -2.5625 0.0625 0 0 Z " fill="#4B6983" transform="translate(382.5625,320.9375)"/>
<path d="M0 0 C1.66611905 -0.042721 3.33382885 -0.04063832 5 0 C6 1 6 1 6.0625 3.5625 C6.041875 4.366875 6.02125 5.17125 6 6 C3.625 6.625 3.625 6.625 1 7 C0.34 6.34 -0.32 5.68 -1 5 C-0.625 2.375 -0.625 2.375 0 0 Z " fill="#40607C" transform="translate(399,279)"/>
<path d="M0 0 C1.98 0 3.96 0 6 0 C6.38218767 1.65614657 6.71395102 3.32457024 7 5 C6.67 5.33 6.34 5.66 6 6 C3.66055264 5.71269945 1.3260857 5.38063221 -1 5 C-0.67 3.35 -0.34 1.7 0 0 Z " fill="#466580" transform="translate(402,268)"/>
<path d="M0 0 C1.67542976 0.28604898 3.34385343 0.61781233 5 1 C5.38218767 2.65614657 5.71395102 4.32457024 6 6 C5 7 5 7 2.5 7.125 C0 7 0 7 -1 6 C-1.125 3.5 -1.125 3.5 -1 1 C-0.67 0.67 -0.34 0.34 0 0 Z " fill="#42627E" transform="translate(405,256)"/>
<path d="M0 0 C1.2065625 0.0309375 1.2065625 0.0309375 2.4375 0.0625 C3.0625 2.4375 3.0625 2.4375 3.4375 5.0625 C2.7775 5.7225 2.1175 6.3825 1.4375 7.0625 C-1.1875 6.6875 -1.1875 6.6875 -3.5625 6.0625 C-3.605221 4.39638095 -3.60313832 2.72867115 -3.5625 1.0625 C-2.5625 0.0625 -2.5625 0.0625 0 0 Z " fill="#466580" transform="translate(409.5625,244.9375)"/>
<path d="M0 0 C1.67542976 0.28604898 3.34385343 0.61781233 5 1 C5.38218767 2.65614657 5.71395102 4.32457024 6 6 C5 7 5 7 2.5 7.125 C0 7 0 7 -1 6 C-1.125 3.5 -1.125 3.5 -1 1 C-0.67 0.67 -0.34 0.34 0 0 Z " fill="#466680" transform="translate(33,240)"/>
<path d="M0 0 C1.98 0 3.96 0 6 0 C6.38218767 1.65614657 6.71395102 3.32457024 7 5 C6.67 5.33 6.34 5.66 6 6 C3.66055264 5.71269945 1.3260857 5.38063221 -1 5 C-0.67 3.35 -0.34 1.7 0 0 Z " fill="#44647F" transform="translate(408,222)"/>
<path d="M0 0 C0.042721 1.66611905 0.04063832 3.33382885 0 5 C-1 6 -1 6 -3.5 6.125 C-6 6 -6 6 -7 5 C-7.04063832 3.33382885 -7.042721 1.66611905 -7 0 C-4.3333581 -1.33332095 -2.83319697 -0.67102033 0 0 Z " fill="#476681" transform="translate(413,199)"/>
<path d="M0 0 C1.67542976 0.28604898 3.34385343 0.61781233 5 1 C5.33 2.65 5.66 4.3 6 6 C3.69 6.33 1.38 6.66 -1 7 C-1.04254356 5.00045254 -1.04080783 2.99958364 -1 1 C-0.67 0.67 -0.34 0.34 0 0 Z " fill="#4C6A84" transform="translate(392,142)"/>
<path d="M0 0 C2.625 0.375 2.625 0.375 5 1 C5 2.98 5 4.96 5 7 C3.02 7 1.04 7 -1 7 C-1.625 4.625 -1.625 4.625 -2 2 C-1.34 1.34 -0.68 0.68 0 0 Z " fill="#4A6883" transform="translate(375,112)"/>
<path d="M0 0 C1.2065625 0.0309375 1.2065625 0.0309375 2.4375 0.0625 C3.0625 2.4375 3.0625 2.4375 3.4375 5.0625 C2.7775 5.7225 2.1175 6.3825 1.4375 7.0625 C-1.1875 6.6875 -1.1875 6.6875 -3.5625 6.0625 C-3.605221 4.39638095 -3.60313832 2.72867115 -3.5625 1.0625 C-2.5625 0.0625 -2.5625 0.0625 0 0 Z " fill="#4A6883" transform="translate(369.5625,102.9375)"/>
<path d="M0 0 C1.67542976 0.28604898 3.34385343 0.61781233 5 1 C5.38218767 2.65614657 5.71395102 4.32457024 6 6 C5 7 5 7 2.5 7.125 C0 7 0 7 -1 6 C-1.125 3.5 -1.125 3.5 -1 1 C-0.67 0.67 -0.34 0.34 0 0 Z " fill="#4E6982" transform="translate(210,33)"/>
<path d="M0 0 C0.38218767 1.65614657 0.71395102 3.32457024 1 5 C0 6 0 6 -2.5 6.125 C-5 6 -5 6 -6 5 C-6.04063832 3.33382885 -6.042721 1.66611905 -6 0 C-3.50907189 -1.24546405 -2.58919267 -0.7767578 0 0 Z " fill="#43637E" transform="translate(194,407)"/>
<path d="M0 0 C3.53571429 0.53571429 3.53571429 0.53571429 5 2 C5.04063832 3.66617115 5.042721 5.33388095 5 7 C3.02 7 1.04 7 -1 7 C-1.625 4.625 -1.625 4.625 -2 2 C-1.34 1.34 -0.68 0.68 0 0 Z " fill="#4E6B85" transform="translate(167,400)"/>
<path d="M0 0 C1.66611905 -0.042721 3.33382885 -0.04063832 5 0 C6 1 6 1 6.0625 3.5625 C6.041875 4.366875 6.02125 5.17125 6 6 C3.625 6.625 3.625 6.625 1 7 C0.34 6.34 -0.32 5.68 -1 5 C-0.625 2.375 -0.625 2.375 0 0 Z " fill="#546F87" transform="translate(134,388)"/>
<path d="M0 0 C1.66611905 -0.042721 3.33382885 -0.04063832 5 0 C6 1 6 1 6.0625 3.5625 C6.041875 4.366875 6.02125 5.17125 6 6 C3.625 6.625 3.625 6.625 1 7 C0.34 6.34 -0.32 5.68 -1 5 C-0.625 2.375 -0.625 2.375 0 0 Z " fill="#44647F" transform="translate(87,354)"/>
<path d="M0 0 C0.33 1.98 0.66 3.96 1 6 C-0.9914056 6.38133299 -2.99279077 6.71325582 -5 7 C-6 6 -6 6 -6.0625 3.4375 C-6.041875 2.633125 -6.02125 1.82875 -6 1 C-4 0 -4 0 0 0 Z " fill="#44637F" transform="translate(42,263)"/>
<path d="M0 0 C0 1.98 0 3.96 0 6 C-2.31 5.67 -4.62 5.34 -7 5 C-7 3.35 -7 1.7 -7 0 C-4.3333581 -1.33332095 -2.83319697 -0.67102033 0 0 Z " fill="#4A6883" transform="translate(414,234)"/>
<path d="M0 0 C1.65 0 3.3 0 5 0 C5.33 1.98 5.66 3.96 6 6 C3.625 6.625 3.625 6.625 1 7 C0.34 6.34 -0.32 5.68 -1 5 C-0.625 2.375 -0.625 2.375 0 0 Z " fill="#42627D" transform="translate(84,91)"/>
<path d="M0 0 C1.66611905 -0.042721 3.33382885 -0.04063832 5 0 C6 1 6 1 6.0625 3.5625 C6.041875 4.366875 6.02125 5.17125 6 6 C3.625 6.625 3.625 6.625 1 7 C0.34 6.34 -0.32 5.68 -1 5 C-0.625 2.375 -0.625 2.375 0 0 Z " fill="#496782" transform="translate(334,71)"/>
<path d="M0 0 C1.65 0 3.3 0 5 0 C6.125 4.75 6.125 4.75 5 7 C3.35 7 1.7 7 0 7 C-1.125 2.25 -1.125 2.25 0 0 Z " fill="#45647F" transform="translate(324,64)"/>
<path d="M0 0 C0 1.65 0 3.3 0 5 C-1.9914056 5.38133299 -3.99279077 5.71325582 -6 6 C-7 5 -7 5 -7.0625 2.4375 C-7.041875 1.633125 -7.02125 0.82875 -7 0 C-4.3333581 -1.33332095 -2.83319697 -0.67102033 0 0 Z " fill="#45647F" transform="translate(288,44)"/>
<path d="M0 0 C1.67542976 0.28604898 3.34385343 0.61781233 5 1 C5.38218767 2.65614657 5.71395102 4.32457024 6 6 C5 7 5 7 2.4375 7.0625 C1.2309375 7.0315625 1.2309375 7.0315625 0 7 C-0.38133299 5.0085944 -0.71325582 3.00720923 -1 1 C-0.67 0.67 -0.34 0.34 0 0 Z " fill="#3E5F7B" transform="translate(186,36)"/>
<path d="M0 0 C1.67542976 0.28604898 3.34385343 0.61781233 5 1 C5.625 2.875 5.625 2.875 6 5 C5.34 5.66 4.68 6.32 4 7 C1.375 6.625 1.375 6.625 -1 6 C-1.042721 4.33388095 -1.04063832 2.66617115 -1 1 C-0.67 0.67 -0.34 0.34 0 0 Z " fill="#45637F" transform="translate(145,393)"/>
<path d="M0 0 C1.67542976 0.28604898 3.34385343 0.61781233 5 1 C5.625 2.875 5.625 2.875 6 5 C5.34 5.66 4.68 6.32 4 7 C1.375 6.625 1.375 6.625 -1 6 C-1.042721 4.33388095 -1.04063832 2.66617115 -1 1 C-0.67 0.67 -0.34 0.34 0 0 Z " fill="#41617C" transform="translate(114,376)"/>
<path d="M0 0 C1.67542976 0.28604898 3.34385343 0.61781233 5 1 C5.625 2.875 5.625 2.875 6 5 C5.34 5.66 4.68 6.32 4 7 C1.375 6.625 1.375 6.625 -1 6 C-1.042721 4.33388095 -1.04063832 2.66617115 -1 1 C-0.67 0.67 -0.34 0.34 0 0 Z " fill="#44647F" transform="translate(105,369)"/>
<path d="M0 0 C1.98 0 3.96 0 6 0 C6.04254356 1.99954746 6.04080783 4.00041636 6 6 C5 7 5 7 2.4375 7.0625 C1.2309375 7.0315625 1.2309375 7.0315625 0 7 C0 4.69 0 2.38 0 0 Z " fill="#C1C1C1" transform="translate(228,208)"/>
<path d="M0 0 C1.4540625 0.0309375 1.4540625 0.0309375 2.9375 0.0625 C2.9375 2.0425 2.9375 4.0225 2.9375 6.0625 C0.6275 6.0625 -1.6825 6.0625 -4.0625 6.0625 C-4.105221 4.39638095 -4.10313832 2.72867115 -4.0625 1.0625 C-3.0625 0.0625 -3.0625 0.0625 0 0 Z " fill="#506A82" transform="translate(36.0625,205.9375)"/>
<path d="M0 0 C0.33 1.65 0.66 3.3 1 5 C-0.9914056 5.38133299 -2.99279077 5.71325582 -5 6 C-6 5 -6 5 -6.0625 2.4375 C-6.041875 1.633125 -6.02125 0.82875 -6 0 C-3.50907189 -1.24546405 -2.58919267 -0.7767578 0 0 Z " fill="#44647F" transform="translate(405,165)"/>
<path d="M0 0 C0.33 1.65 0.66 3.3 1 5 C-0.9914056 5.38133299 -2.99279077 5.71325582 -5 6 C-6 5 -6 5 -6.0625 2.4375 C-6.041875 1.633125 -6.02125 0.82875 -6 0 C-3.50907189 -1.24546405 -2.58919267 -0.7767578 0 0 Z " fill="#40607C" transform="translate(401,154)"/>
<path d="M0 0 C2.625 0.375 2.625 0.375 5 1 C4.67 2.65 4.34 4.3 4 6 C2.35 6.33 0.7 6.66 -1 7 C-1.625 4.625 -1.625 4.625 -2 2 C-1.34 1.34 -0.68 0.68 0 0 Z " fill="#44647F" transform="translate(387,132)"/>
<path d="M0 0 C1.67542976 0.28604898 3.34385343 0.61781233 5 1 C5.625 2.875 5.625 2.875 6 5 C5.34 5.66 4.68 6.32 4 7 C1.375 6.625 1.375 6.625 -1 6 C-1.042721 4.33388095 -1.04063832 2.66617115 -1 1 C-0.67 0.67 -0.34 0.34 0 0 Z " fill="#44637F" transform="translate(381,122)"/>
<path d="M0 0 C1.67542976 0.28604898 3.34385343 0.61781233 5 1 C5.625 2.875 5.625 2.875 6 5 C5.34 5.66 4.68 6.32 4 7 C1.375 6.625 1.375 6.625 -1 6 C-1.042721 4.33388095 -1.04063832 2.66617115 -1 1 C-0.67 0.67 -0.34 0.34 0 0 Z " fill="#42617D" transform="translate(77,100)"/>
<path d="M0 0 C1.67542976 0.28604898 3.34385343 0.61781233 5 1 C5 2.65 5 4.3 5 6 C2.625 6.625 2.625 6.625 0 7 C-0.66 6.34 -1.32 5.68 -2 5 C-1.46428571 1.46428571 -1.46428571 1.46428571 0 0 Z " fill="#44647F" transform="translate(360,94)"/>
<path d="M0 0 C1.65 0 3.3 0 5 0 C5.33 1.98 5.66 3.96 6 6 C3.625 6.625 3.625 6.625 1 7 C0.34 6.34 -0.32 5.68 -1 5 C-0.625 2.375 -0.625 2.375 0 0 Z " fill="#466580" transform="translate(101,75)"/>
<path d="M0 0 C2.31 0 4.62 0 7 0 C7 1.98 7 3.96 7 6 C5.00045254 6.04254356 2.99958364 6.04080783 1 6 C0 5 0 5 -0.0625 2.4375 C-0.041875 1.633125 -0.02125 0.82875 0 0 Z " fill="#46627B" transform="translate(234,34)"/>
<path d="M0 0 C0.19466332 1.79090253 0.38051213 3.58276505 0.5625 5.375 C0.66691406 6.37273437 0.77132812 7.37046875 0.87890625 8.3984375 C1 11 1 11 0 13 C-2.375 14.1875 -2.375 14.1875 -5 15 C-5.99 14.67 -6.98 14.34 -8 14 C-7.34 14 -6.68 14 -6 14 C-6 13.34 -6 12.68 -6 12 C-4.68 12 -3.36 12 -2 12 C-1.67 8.37 -1.34 4.74 -1 1 C-1.9075 1.350625 -2.815 1.70125 -3.75 2.0625 C-6.87758436 2.96468779 -8.05208081 3.13381507 -11 2 C-7.1389146 0.56331706 -4.103573 -0.11185208 0 0 Z " fill="#97A8B7" transform="translate(116,390)"/>
<path d="M0 0 C2.31 0 4.62 0 7 0 C7.042721 1.66611905 7.04063832 3.33382885 7 5 C6 6 6 6 3.5 6.125 C1 6 1 6 0 5 C-0.04063832 3.33382885 -0.042721 1.66611905 0 0 Z " fill="#456480" transform="translate(372,331)"/>
<path d="M0 0 C2.5 0.125 2.5 0.125 3.5 1.125 C3.54063832 2.79117115 3.542721 4.45888095 3.5 6.125 C1.19 6.125 -1.12 6.125 -3.5 6.125 C-3.542721 4.45888095 -3.54063832 2.79117115 -3.5 1.125 C-2.5 0.125 -2.5 0.125 0 0 Z " fill="#466580" transform="translate(36.5,193.875)"/>
<path d="M0 0 C1.67542976 0.28604898 3.34385343 0.61781233 5 1 C5.625 2.875 5.625 2.875 6 5 C5.34 5.66 4.68 6.32 4 7 C1.375 6.625 1.375 6.625 -1 6 C-1.042721 4.33388095 -1.04063832 2.66617115 -1 1 C-0.67 0.67 -0.34 0.34 0 0 Z " fill="#43637E" transform="translate(93,83)"/>
<path d="M0 0 C2.0625 0.4375 2.0625 0.4375 4 1 C4.625 3.375 4.625 3.375 5 6 C4.34 6.66 3.68 7.32 3 8 C0.875 7.625 0.875 7.625 -1 7 C-1.04254356 5.00045254 -1.04080783 2.99958364 -1 1 C-0.67 0.67 -0.34 0.34 0 0 Z " fill="#476681" transform="translate(152,45)"/>
<path d="M0 0 C1.66611905 -0.042721 3.33382885 -0.04063832 5 0 C6 1 6 1 6.0625 3.5625 C6.041875 4.366875 6.02125 5.17125 6 6 C4.34385343 6.38218767 2.67542976 6.71395102 1 7 C0 6 0 6 -0.0625 2.9375 C-0.041875 1.968125 -0.02125 0.99875 0 0 Z " fill="#3F607B" transform="translate(341,365)"/>
<path d="M0 0 C1.67542976 0.28604898 3.34385343 0.61781233 5 1 C5.625 2.875 5.625 2.875 6 5 C5.34 5.66 4.68 6.32 4 7 C1.875 6.625 1.875 6.625 0 6 C-0.38218767 4.34385343 -0.71395102 2.67542976 -1 1 C-0.67 0.67 -0.34 0.34 0 0 Z " fill="#41617D" transform="translate(366,340)"/>
<path d="M0 0 C1.4540625 0.0309375 1.4540625 0.0309375 2.9375 0.0625 C2.980221 1.72861905 2.97813832 3.39632885 2.9375 5.0625 C1.9375 6.0625 1.9375 6.0625 -0.625 6.125 C-1.8315625 6.0940625 -1.8315625 6.0940625 -3.0625 6.0625 C-3.44468767 4.40635343 -3.77645102 2.73792976 -4.0625 1.0625 C-3.0625 0.0625 -3.0625 0.0625 0 0 Z " fill="#4B6A85" transform="translate(35.0625,217.9375)"/>
<path d="M0 0 C1.67542976 0.28604898 3.34385343 0.61781233 5 1 C5 2.65 5 4.3 5 6 C3.34385343 6.38218767 1.67542976 6.71395102 0 7 C-1 6 -1 6 -1.125 3.5 C-1 1 -1 1 0 0 Z " fill="#43627E" transform="translate(178,404)"/>
<path d="M0 0 C1.2065625 0.0309375 1.2065625 0.0309375 2.4375 0.0625 C2.81968767 1.71864657 3.15145102 3.38707024 3.4375 5.0625 C2.4375 6.0625 2.4375 6.0625 -0.125 6.125 C-1.3315625 6.0940625 -1.3315625 6.0940625 -2.5625 6.0625 C-2.94468767 4.40635343 -3.27645102 2.73792976 -3.5625 1.0625 C-2.5625 0.0625 -2.5625 0.0625 0 0 Z " fill="#395A77" transform="translate(50.5625,296.9375)"/>
<path d="M0 0 C1.2065625 0.0309375 1.2065625 0.0309375 2.4375 0.0625 C2.81968767 1.71864657 3.15145102 3.38707024 3.4375 5.0625 C2.4375 6.0625 2.4375 6.0625 -0.125 6.125 C-1.3315625 6.0940625 -1.3315625 6.0940625 -2.5625 6.0625 C-2.94468767 4.40635343 -3.27645102 2.73792976 -3.5625 1.0625 C-2.5625 0.0625 -2.5625 0.0625 0 0 Z " fill="#405F7A" transform="translate(397.5625,289.9375)"/>
<path d="M0 0 C1.2065625 0.0309375 1.2065625 0.0309375 2.4375 0.0625 C2.81968767 1.71864657 3.15145102 3.38707024 3.4375 5.0625 C2.4375 6.0625 2.4375 6.0625 -0.125 6.125 C-1.3315625 6.0940625 -1.3315625 6.0940625 -2.5625 6.0625 C-2.94468767 4.40635343 -3.27645102 2.73792976 -3.5625 1.0625 C-2.5625 0.0625 -2.5625 0.0625 0 0 Z " fill="#3A5B78" transform="translate(34.5625,228.9375)"/>
<path d="M0 0 C0 1.65 0 3.3 0 5 C-2.31 5 -4.62 5 -7 5 C-7 3.35 -7 1.7 -7 0 C-4.3333581 -1.33332095 -2.83319697 -0.67102033 0 0 Z " fill="#42627D" transform="translate(414,211)"/>
<path d="M0 0 C1.2065625 0.0309375 1.2065625 0.0309375 2.4375 0.0625 C2.81968767 1.71864657 3.15145102 3.38707024 3.4375 5.0625 C2.4375 6.0625 2.4375 6.0625 -0.125 6.125 C-1.3315625 6.0940625 -1.3315625 6.0940625 -2.5625 6.0625 C-2.94468767 4.40635343 -3.27645102 2.73792976 -3.5625 1.0625 C-2.5625 0.0625 -2.5625 0.0625 0 0 Z " fill="#3F5F7B" transform="translate(58.5625,128.9375)"/>
<path d="M0 0 C1.67542976 0.28604898 3.34385343 0.61781233 5 1 C5 2.65 5 4.3 5 6 C3.34385343 6.38218767 1.67542976 6.71395102 0 7 C-1 6 -1 6 -1.125 3.5 C-1 1 -1 1 0 0 Z " fill="#3E5F7B" transform="translate(111,68)"/>
<path d="M0 0 C1.67542976 0.28604898 3.34385343 0.61781233 5 1 C5 2.65 5 4.3 5 6 C3.34385343 6.38218767 1.67542976 6.71395102 0 7 C-1 6 -1 6 -1.125 3.5 C-1 1 -1 1 0 0 Z " fill="#3C5D79" transform="translate(141,50)"/>
<path d="M0 0 C1.65 0 3.3 0 5 0 C5.33 1.65 5.66 3.3 6 5 C1.25 6.125 1.25 6.125 -1 5 C-0.67 3.35 -0.34 1.7 0 0 Z " fill="#43637E" transform="translate(212,409)"/>
<path d="M0 0 C1.67542976 0.28604898 3.34385343 0.61781233 5 1 C5 2.65 5 4.3 5 6 C3.35 6.33 1.7 6.66 0 7 C-0.38133299 5.0085944 -0.71325582 3.00720923 -1 1 C-0.67 0.67 -0.34 0.34 0 0 Z " fill="#3A5B78" transform="translate(259,405)"/>
<path d="M0 0 C1.67542976 0.28604898 3.34385343 0.61781233 5 1 C5 2.65 5 4.3 5 6 C1.25 7.125 1.25 7.125 -1 6 C-1.042721 4.33388095 -1.04063832 2.66617115 -1 1 C-0.67 0.67 -0.34 0.34 0 0 Z " fill="#3D5D7A" transform="translate(303,390)"/>
<path d="M0 0 C1.98 0 3.96 0 6 0 C6.625 1.875 6.625 1.875 7 4 C6.34 4.66 5.68 5.32 5 6 C2.375 5.625 2.375 5.625 0 5 C0 3.35 0 1.7 0 0 Z " fill="#3A5C78" transform="translate(71,337)"/>
<path d="M0 0 C2.625 0.375 2.625 0.375 5 1 C5 2.65 5 4.3 5 6 C3.02 6 1.04 6 -1 6 C-1.625 4.125 -1.625 4.125 -2 2 C-1.34 1.34 -0.68 0.68 0 0 Z " fill="#395A77" transform="translate(406,187)"/>
<path d="M0 0 C1.98 0 3.96 0 6 0 C6 1.65 6 3.3 6 5 C4.02 5.33 2.04 5.66 0 6 C-1.125 2.25 -1.125 2.25 0 0 Z " fill="#3B5C79" transform="translate(403,176)"/>
<path d="M0 0 C1.65 0 3.3 0 5 0 C5.33 1.65 5.66 3.3 6 5 C1.25 6.125 1.25 6.125 -1 5 C-0.67 3.35 -0.34 1.7 0 0 Z " fill="#3D5E7A" transform="translate(62,119)"/>
<path d="M0 0 C2.125 0.375 2.125 0.375 4 1 C4 2.65 4 4.3 4 6 C2.35 6.33 0.7 6.66 -1 7 C-1.625 4.625 -1.625 4.625 -2 2 C-1.34 1.34 -0.68 0.68 0 0 Z " fill="#375876" transform="translate(125,382)"/>
<path d="M0 0 C1.65 0 3.3 0 5 0 C5.38218767 1.65614657 5.71395102 3.32457024 6 5 C5 6 5 6 2.4375 6.0625 C1.2309375 6.0315625 1.2309375 6.0315625 0 6 C-1 3 -1 3 0 0 Z " fill="#3D5E7A" transform="translate(65,327)"/>
<path d="M0 0 C-0.33 1.98 -0.66 3.96 -1 6 C-2.65 5.67 -4.3 5.34 -6 5 C-6 3.35 -6 1.7 -6 0 C-3.50907189 -1.24546405 -2.58919267 -0.7767578 0 0 Z " fill="#496781" transform="translate(58,308)"/>
<path d="M0 0 C1.67542976 0.28604898 3.34385343 0.61781233 5 1 C5 2.65 5 4.3 5 6 C3.35 6.33 1.7 6.66 0 7 C-0.38133299 5.0085944 -0.71325582 3.00720923 -1 1 C-0.67 0.67 -0.34 0.34 0 0 Z " fill="#385976" transform="translate(259,37)"/>
<path d="M0 0 C1.98 0 3.96 0 6 0 C6 1.98 6 3.96 6 6 C4.02 6 2.04 6 0 6 C0 4.02 0 2.04 0 0 Z " fill="#3A5873" transform="translate(221,33)"/>
<path d="M0 0 C1.2065625 0.0309375 1.2065625 0.0309375 2.4375 0.0625 C2.4375 2.0425 2.4375 4.0225 2.4375 6.0625 C0.4575 6.0625 -1.5225 6.0625 -3.5625 6.0625 C-3.605221 4.39638095 -3.60313832 2.72867115 -3.5625 1.0625 C-2.5625 0.0625 -2.5625 0.0625 0 0 Z " fill="#93A5B5" transform="translate(323.5625,225.9375)"/>
<path d="M0 0 C1.67542976 0.28604898 3.34385343 0.61781233 5 1 C5 2.65 5 4.3 5 6 C2 7 2 7 -1 6 C-1.042721 4.33388095 -1.04063832 2.66617115 -1 1 C-0.67 0.67 -0.34 0.34 0 0 Z " fill="#46647F" transform="translate(199,34)"/>
<path d="M0 0 C1.66611905 -0.042721 3.33382885 -0.04063832 5 0 C6 1 6 1 6.0625 3.5625 C6.041875 4.366875 6.02125 5.17125 6 6 C4.33388095 6.042721 2.66617115 6.04063832 1 6 C0 5 0 5 -0.0625 2.4375 C-0.041875 1.633125 -0.02125 0.82875 0 0 Z " fill="#345674" transform="translate(358,349)"/>
<path d="M0 0 C1.98 0 3.96 0 6 0 C6 1.65 6 3.3 6 5 C4.34385343 5.38218767 2.67542976 5.71395102 1 6 C0 5 0 5 -0.0625 2.4375 C-0.041875 1.633125 -0.02125 0.82875 0 0 Z " fill="#456582" transform="translate(58,318)"/>
<path d="M0 0 C1.67542976 0.28604898 3.34385343 0.61781233 5 1 C5 2.65 5 4.3 5 6 C3.02 6 1.04 6 -1 6 C-1.042721 4.33388095 -1.04063832 2.66617115 -1 1 C-0.67 0.67 -0.34 0.34 0 0 Z " fill="#365875" transform="translate(343,78)"/>
<path d="M0 0 C1.66611905 -0.042721 3.33382885 -0.04063832 5 0 C6 1 6 1 6.0625 3.5625 C6.041875 4.366875 6.02125 5.17125 6 6 C3.03 5.505 3.03 5.505 0 5 C0 3.35 0 1.7 0 0 Z " fill="#41607C" transform="translate(155,398)"/>
<path d="M0 0 C1.67542976 0.28604898 3.34385343 0.61781233 5 1 C5 2.65 5 4.3 5 6 C3.35 6 1.7 6 0 6 C-0.38218767 4.34385343 -0.71395102 2.67542976 -1 1 C-0.67 0.67 -0.34 0.34 0 0 Z " fill="#375976" transform="translate(292,395)"/>
<path d="M0 0 C1.67542976 0.28604898 3.34385343 0.61781233 5 1 C5 2.65 5 4.3 5 6 C3.35 6 1.7 6 0 6 C-0.38218767 4.34385343 -0.71395102 2.67542976 -1 1 C-0.67 0.67 -0.34 0.34 0 0 Z " fill="#40617D" transform="translate(386,311)"/>
<path d="M0 0 C5.28 0 10.56 0 16 0 C16 0.33 16 0.66 16 1 C11.38 1 6.76 1 2 1 C2 1.99 2 2.98 2 4 C3.32 4 4.64 4 6 4 C6 4.66 6 5.32 6 6 C4.33388095 6.042721 2.66617115 6.04063832 1 6 C0.67 5.67 0.34 5.34 0 5 C0 3.35 0 1.7 0 0 Z " fill="#7C7C7C" transform="translate(140,203)"/>
<path d="M0 0 C0.99 0 1.98 0 3 0 C2.67 4.62 2.34 9.24 2 14 C0.06604999 10.13209997 -0.23289353 8.8499541 -0.125 4.75 C-0.09792969 3.41195312 -0.09792969 3.41195312 -0.0703125 2.046875 C-0.04710938 1.37140625 -0.02390625 0.6959375 0 0 Z " fill="#C3C3C3" transform="translate(117,218)"/>
<path d="M0 0 C2.0625 0.4375 2.0625 0.4375 4 1 C3.67 2.65 3.34 4.3 3 6 C1.35 6 -0.3 6 -2 6 C-1.125 1.125 -1.125 1.125 0 0 Z " fill="#335573" transform="translate(353,86)"/>
<path d="M0 0 C0.99 0.33 1.98 0.66 3 1 C1.7934375 2.0828125 1.7934375 2.0828125 0.5625 3.1875 C-2.02292072 6.02515689 -2.68042813 7.27166147 -3 11 C-4.32 10.34 -5.64 9.68 -7 9 C-5.44499019 5.18315774 -2.96404505 2.80804268 0 0 Z " fill="#57738C" transform="translate(428,205)"/>
<path d="M0 0 C0.99 0.33 1.98 0.66 3 1 C2.34 1 1.68 1 1 1 C0.7525 1.639375 0.505 2.27875 0.25 2.9375 C-1 5 -1 5 -3.125 5.75 C-4.053125 5.87375 -4.053125 5.87375 -5 6 C-4.67 8.31 -4.34 10.62 -4 13 C-6.97858099 9.66398929 -6.97858099 9.66398929 -7.0625 7.0625 C-5.35093445 3.74004923 -3.06233313 2.14363319 0 0 Z " fill="#657D92" transform="translate(272,15)"/>
<path d="M0 0 C0.53625 0.268125 1.0725 0.53625 1.625 0.8125 C1.295 1.4725 0.965 2.1325 0.625 2.8125 C-0.365 2.8125 -1.355 2.8125 -2.375 2.8125 C-4.844364 4.7879912 -6.09200242 6.95042848 -7.375 9.8125 C-7.705 8.1625 -8.035 6.5125 -8.375 4.8125 C-2.95961538 -0.23365385 -2.95961538 -0.23365385 0 0 Z " fill="#57738C" transform="translate(201.375,422.1875)"/>
<path d="M0 0 C-1.30508689 2.61017378 -3.33442284 3.88762109 -5.56640625 5.69140625 C-7.28713903 7.26210238 -8.19325369 8.82178495 -9 11 C-9.33 9.35 -9.66 7.7 -10 6 C-8.90398831 4.99106869 -7.79786082 3.99311775 -6.6875 3 C-6.07261719 2.443125 -5.45773438 1.88625 -4.82421875 1.3125 C-3 0 -3 0 0 0 Z " fill="#6D859A" transform="translate(179,417)"/>
<path d="M0 0 C0.66 1.32 1.32 2.64 2 4 C6.0100934 4.17864631 6.0100934 4.17864631 10 4 C10.66 3.34 11.32 2.68 12 2 C12 3.32 12 4.64 12 6 C8.04 6 4.08 6 0 6 C-1 2 -1 2 0 0 Z " fill="#9CACBA" transform="translate(396,121)"/>
<path d="M0 0 C2.475 0.495 2.475 0.495 5 1 C5 2.32 5 3.64 5 5 C3.35 5 1.7 5 0 5 C0 3.35 0 1.7 0 0 Z " fill="#6D859A" transform="translate(340,227)"/>
<path d="M0 0 C1.65 0 3.3 0 5 0 C4.67 1.65 4.34 3.3 4 5 C2.68 5 1.36 5 0 5 C0 3.35 0 1.7 0 0 Z " fill="#6A8297" transform="translate(330,227)"/>
<path d="M0 0 C1.65 0 3.3 0 5 0 C4.67 1.65 4.34 3.3 4 5 C2.68 5 1.36 5 0 5 C0 3.35 0 1.7 0 0 Z " fill="#2C506E" transform="translate(131,57)"/>
<path d="M0 0 C1.9375 0.375 1.9375 0.375 4 1 C4.33 1.66 4.66 2.32 5 3 C4.278125 3.061875 3.55625 3.12375 2.8125 3.1875 C-0.84657625 4.24456647 -2.49211602 6.20550071 -5 9 C-4.42647107 5.12867972 -2.51295648 2.91827204 0 0 Z " fill="#59758D" transform="translate(222,423)"/>
<path d="M0 0 C1.65 0 3.3 0 5 0 C4.67 1.65 4.34 3.3 4 5 C2.68 4.67 1.36 4.34 0 4 C0 2.68 0 1.36 0 0 Z " fill="#6E8299" transform="translate(301,227)"/>
<path d="M0 0 C2.475 0.495 2.475 0.495 5 1 C4.67 2.32 4.34 3.64 4 5 C2.68 4.67 1.36 4.34 0 4 C0 2.68 0 1.36 0 0 Z " fill="#274B6B" transform="translate(44,287)"/>
<path d="M0 0 C1.98 0.495 1.98 0.495 4 1 C3.67 2.32 3.34 3.64 3 5 C1.68 4.67 0.36 4.34 -1 4 C-0.67 2.68 -0.34 1.36 0 0 Z " fill="#59748C" transform="translate(302,183)"/>
<path d="M0 0 C1.65 0.33 3.3 0.66 5 1 C5.33 2.65 5.66 4.3 6 6 C5.566875 5.505 5.13375 5.01 4.6875 4.5 C3.00259517 2.66781808 3.00259517 2.66781808 0 3 C-0.33 3.66 -0.66 4.32 -1 5 C-0.67 3.35 -0.34 1.7 0 0 Z " fill="#5A758A" transform="translate(186,36)"/>
<path d="M0 0 C0.99 0.33 1.98 0.66 3 1 C0.69 3.31 -1.62 5.62 -4 8 C-4.33 7.34 -4.66 6.68 -5 6 C-3.35 4.02 -1.7 2.04 0 0 Z " fill="#4C6A84" transform="translate(17,255)"/>
<path d="M0 0 C1.32 0 2.64 0 4 0 C4 1.65 4 3.3 4 5 C2.68 5 1.36 5 0 5 C0 3.35 0 1.7 0 0 Z " fill="#62758E" transform="translate(292,227)"/>
<path d="M0 0 C1.32 0 2.64 0 4 0 C4 1.65 4 3.3 4 5 C2.68 5 1.36 5 0 5 C0 3.35 0 1.7 0 0 Z " fill="#516D86" transform="translate(311,227)"/>
<path d="M0 0 C1.32 0 2.64 0 4 0 C4 1.65 4 3.3 4 5 C2.68 5 1.36 5 0 5 C0 3.35 0 1.7 0 0 Z " fill="#58748C" transform="translate(311,183)"/>
<path d="M0 0 C1.32 0 2.64 0 4 0 C4 1.65 4 3.3 4 5 C2.68 5 1.36 5 0 5 C0 3.35 0 1.7 0 0 Z " fill="#5A758D" transform="translate(330,183)"/>
<path d="M0 0 C1.32 0 2.64 0 4 0 C4 1.65 4 3.3 4 5 C2.68 5 1.36 5 0 5 C0 3.35 0 1.7 0 0 Z " fill="#58748C" transform="translate(292,183)"/>
<path d="M0 0 C1.65 0 3.3 0 5 0 C5 1.32 5 2.64 5 4 C3.35 4 1.7 4 0 4 C0 2.68 0 1.36 0 0 Z " fill="#274868" transform="translate(173,40)"/>
<path d="M0 0 C1.65 0 3.3 0 5 0 C4.67 1.32 4.34 2.64 4 4 C2.68 4 1.36 4 0 4 C0 2.68 0 1.36 0 0 Z " fill="#55718A" transform="translate(320,184)"/>
<path d="M0 0 C1.98 0 3.96 0 6 0 C6.33 1.65 6.66 3.3 7 5 C6.34 3.68 5.68 2.36 5 1 C2.53199953 2.15173355 0.95216435 3.04783565 -1 5 C-0.67 3.35 -0.34 1.7 0 0 Z " fill="#778DA1" transform="translate(162,42)"/>
<path d="M0 0 C0.33 0 0.66 0 1 0 C1 1.65 1 3.3 1 5 C2.32 5.66 3.64 6.32 5 7 C3.35 7 1.7 7 0 7 C-1.125 2.25 -1.125 2.25 0 0 Z " fill="#A9B7C5" transform="translate(154,398)"/>
<path d="M0 0 C2.0625 0.4375 2.0625 0.4375 4 1 C3.2884375 1.680625 3.2884375 1.680625 2.5625 2.375 C0.90972192 3.93258204 0.90972192 3.93258204 0 6 C-0.66 6 -1.32 6 -2 6 C-1.125 1.125 -1.125 1.125 0 0 Z " fill="#8498A8" transform="translate(391,300)"/>
</svg>
